<?xml version="1.0" encoding="UTF-8" standalone="no"?>
<svg
   xmlns:dc="http://purl.org/dc/elements/1.1/"
   xmlns:cc="http://creativecommons.org/ns#"
   xmlns:rdf="http://www.w3.org/1999/02/22-rdf-syntax-ns#"
   xmlns:svg="http://www.w3.org/2000/svg"
   xmlns="http://www.w3.org/2000/svg"
   id="svg7617"
   version="1.1"
   viewBox="0 0 100 100"
   height="100mm"
   width="100mm">
  <defs
     id="defs7611" />
  <metadata
     id="metadata7614">
    <rdf:RDF>
      <cc:Work
         rdf:about="">
        <dc:format>image/svg+xml</dc:format>
        <dc:type
           rdf:resource="http://purl.org/dc/dcmitype/StillImage" />
        <dc:title></dc:title>
      </cc:Work>
    </rdf:RDF>
  </metadata>
  <g
     transform="translate(0,-197)"
     id="layer1">
    <path
       id="rect8210"
       transform="matrix(0.26458333,0,0,0.26458333,0,197)"
       d="M 159.74414 0 C 102.65327 0 56.693359 45.961865 56.693359 103.05273 L 56.693359 193.47266 C 56.693359 250.56353 102.65327 296.52344 159.74414 296.52344 L 218.20703 296.52344 C 275.2979 296.52344 321.25977 250.56353 321.25977 193.47266 L 321.25977 103.05273 C 321.25977 45.961865 275.2979 1.5946009e-016 218.20703 0 L 159.74414 0 z M 170.36719 37.796875 L 207.58594 37.796875 C 249.62284 37.796875 283.46484 71.636926 283.46484 113.67383 L 283.46484 182.84961 C 283.46484 224.88651 249.62284 258.72852 207.58594 258.72852 L 170.36719 258.72852 C 128.33029 258.72852 94.488281 224.88651 94.488281 182.84961 L 94.488281 113.67383 C 94.488281 71.636926 128.33029 37.796875 170.36719 37.796875 z "
       style="opacity:1;fill:#000000;fill-opacity:1;stroke:none;stroke-width:0.37795275;stroke-miterlimit:4;stroke-dasharray:none;stroke-opacity:1" />
    <path
       id="rect8210-1"
       d="m 52.017498,197 -3.639571,10.00042 h 6.545853 c 11.122263,0 20.076294,8.95352 20.076294,20.07578 v 18.30276 c 0,11.12226 -8.954031,20.07629 -20.076294,20.07629 h -9.847461 c -9.791621,0 -17.899435,-6.94085 -19.700089,-16.19022 l -10.376112,-3.77652 v 2.70113 c 0,15.10529 12.160226,27.26552 27.265522,27.26552 h 15.468306 c 15.105292,0 27.266034,-12.16023 27.266034,-27.26552 v -23.9236 C 84.99998,209.16075 72.839238,197 57.733946,197 Z"
       style="opacity:1;fill:#4d4d4d;fill-opacity:1;stroke:none;stroke-width:0.1;stroke-miterlimit:4;stroke-dasharray:none;stroke-opacity:1" />
    <rect
       ry="0"
       y="237"
       x="0"
       height="60"
       width="100"
       id="rect8172"
       style="opacity:1;fill:#aa8800;fill-opacity:1;stroke:none;stroke-width:0.1;stroke-miterlimit:4;stroke-dasharray:none;stroke-opacity:1" />
    <path
       id="path8180"
       d="m 35.000001,237 29.999998,60 H 100 V 237 H 35.000001"
       style="fill:#ffd42a;stroke:none;stroke-width:0.26458332px;stroke-linecap:butt;stroke-linejoin:miter;stroke-opacity:1;fill-opacity:1" />
    <circle
       r="10"
       cy="254.96652"
       cx="50"
       id="path8182"
       style="opacity:1;fill:#000000;fill-opacity:1;stroke:none;stroke-width:0.13356791;stroke-miterlimit:4;stroke-dasharray:none;stroke-opacity:1" />
    <rect
       ry="0.90203339"
       y="257.87946"
       x="45.369793"
       height="30.521576"
       width="9.260417"
       id="rect8184"
       style="opacity:1;fill:#000000;fill-opacity:1;stroke:none;stroke-width:0.1;stroke-miterlimit:4;stroke-dasharray:none;stroke-opacity:1" />
  </g>
</svg>
